<?xml version="1.0" encoding="us-ascii" standalone="no"?><svg xmlns="http://www.w3.org/2000/svg" xmlns:xlink="http://www.w3.org/1999/xlink" contentStyleType="text/css" height="928px" preserveAspectRatio="none" style="width:2518px;height:928px;background:#FFFFFF;" version="1.1" viewBox="0 0 2518 928" width="2518px" zoomAndPan="magnify"><defs/><g><!--class ClientError.errors--><g id="elem_ClientError.errors"><rect codeLine="11" fill="#F1F1F1" height="72.5938" id="ClientError.errors" rx="2.5" ry="2.5" style="stroke:#181818;stroke-width:0.5;" width="149" x="36" y="683"/><ellipse cx="51" cy="699" fill="#ADD1B2" rx="11" ry="11" style="stroke:#181818;stroke-width:1.0;"/><path d="M50.4688,705.9219 Q48.7188,705.9219 47.5781,705.1875 Q46.4531,704.4375 45.8906,703.0938 Q45.3438,701.7344 45.3438,699.9375 Q45.3438,697.9063 46,696.4531 Q46.6563,695 47.9375,694.2188 Q49.2188,693.4375 51.0938,693.4375 Q51.9844,693.4375 52.6563,693.625 Q53.3281,693.7969 54.0156,694.1406 L53.2031,696.1563 Q52.5781,695.8438 52.0313,695.7188 Q51.5,695.5938 51.0156,695.5938 Q49.8438,695.5938 49.1406,696.125 Q48.4375,696.6563 48.1406,697.6094 Q47.8438,698.5625 47.8438,699.8281 Q47.8438,701.8438 48.5625,702.8125 Q49.2813,703.7656 50.875,703.7656 Q51.4688,703.7656 52.0938,703.6094 Q52.7188,703.4531 53.5469,703.0781 L53.5469,705.2969 Q52.8125,705.6094 52.0156,705.7656 Q51.2344,705.9219 50.4688,705.9219 Z " fill="#000000"/><text fill="#000000" font-family="sans-serif" font-size="14" lengthAdjust="spacing" textLength="117" x="65" y="703.8467">ClientError.errors</text><line style="stroke:#181818;stroke-width:0.5;" x1="37" x2="184" y1="715" y2="715"/><text fill="#000000" font-family="sans-serif" font-size="14" lengthAdjust="spacing" textLength="87" x="42" y="731.9951">code : string</text><text fill="#000000" font-family="sans-serif" font-size="14" lengthAdjust="spacing" textLength="116" x="42" y="748.292">message : string</text></g><!--class result.4--><g id="elem_result.4"><rect codeLine="16" fill="#F1F1F1" height="32" id="result.4" rx="2.5" ry="2.5" style="stroke:#181818;stroke-width:0.5;" width="84" x="1635.5" y="178.5"/><ellipse cx="1650.5" cy="194.5" fill="#ADD1B2" rx="11" ry="11" style="stroke:#181818;stroke-width:1.0;"/><path d="M1649.9688,201.4219 Q1648.2188,201.4219 1647.0781,200.6875 Q1645.9531,199.9375 1645.3906,198.5938 Q1644.8438,197.2344 1644.8438,195.4375 Q1644.8438,193.4063 1645.5,191.9531 Q1646.1563,190.5 1647.4375,189.7188 Q1648.7188,188.9375 1650.5938,188.9375 Q1651.4844,188.9375 1652.1563,189.125 Q1652.8281,189.2969 1653.5156,189.6406 L1652.7031,191.6563 Q1652.0781,191.3438 1651.5313,191.2188 Q1651,191.0938 1650.5156,191.0938 Q1649.3438,191.0938 1648.6406,191.625 Q1647.9375,192.1563 1647.6406,193.1094 Q1647.3438,194.0625 1647.3438,195.3281 Q1647.3438,197.3438 1648.0625,198.3125 Q1648.7813,199.2656 1650.375,199.2656 Q1650.9688,199.2656 1651.5938,199.1094 Q1652.2188,198.9531 1653.0469,198.5781 L1653.0469,200.7969 Q1652.3125,201.1094 1651.5156,201.2656 Q1650.7344,201.4219 1649.9688,201.4219 Z " fill="#000000"/><text fill="#000000" font-family="sans-serif" font-size="14" lengthAdjust="spacing" textLength="52" x="1664.5" y="199.3467">result.4</text></g><!--class result.4.1--><g id="elem_result.4.1"><rect codeLine="19" fill="#F1F1F1" height="32" id="result.4.1" rx="2.5" ry="2.5" style="stroke:#181818;stroke-width:0.5;" width="97" x="1629" y="395.5"/><ellipse cx="1644" cy="411.5" fill="#ADD1B2" rx="11" ry="11" style="stroke:#181818;stroke-width:1.0;"/><path d="M1643.4688,418.4219 Q1641.7188,418.4219 1640.5781,417.6875 Q1639.4531,416.9375 1638.8906,415.5938 Q1638.3438,414.2344 1638.3438,412.4375 Q1638.3438,410.4063 1639,408.9531 Q1639.6563,407.5 1640.9375,406.7188 Q1642.2188,405.9375 1644.0938,405.9375 Q1644.9844,405.9375 1645.6563,406.125 Q1646.3281,406.2969 1647.0156,406.6406 L1646.2031,408.6563 Q1645.5781,408.3438 1645.0313,408.2188 Q1644.5,408.0938 1644.0156,408.0938 Q1642.8438,408.0938 1642.1406,408.625 Q1641.4375,409.1563 1641.1406,410.1094 Q1640.8438,411.0625 1640.8438,412.3281 Q1640.8438,414.3438 1641.5625,415.3125 Q1642.2813,416.2656 1643.875,416.2656 Q1644.4688,416.2656 1645.0938,416.1094 Q1645.7188,415.9531 1646.5469,415.5781 L1646.5469,417.7969 Q1645.8125,418.1094 1645.0156,418.2656 Q1644.2344,418.4219 1643.4688,418.4219 Z " fill="#000000"/><text fill="#000000" font-family="sans-serif" font-size="14" lengthAdjust="spacing" textLength="65" x="1658" y="416.3467">result.4.1</text></g><!--class provenance.1--><g id="elem_provenance.1"><rect codeLine="22" fill="#F1F1F1" height="64.5625" id="provenance.1" rx="2.5" ry="2.5" style="stroke:#181818;stroke-width:0.5;" width="117" x="281" y="162"/><text fill="#000000" font-family="sans-serif" font-size="12" font-style="italic" lengthAdjust="spacing" textLength="79" x="300" y="178.1387">&#171;Parameter&#187;</text><text fill="#000000" font-family="sans-serif" font-size="14" lengthAdjust="spacing" textLength="95" x="292" y="193.9639">provenance.1</text><line style="stroke:#181818;stroke-width:0.5;" x1="282" x2="397" y1="202.2656" y2="202.2656"/><text fill="#000000" font-family="sans-serif" font-size="14" lengthAdjust="spacing" textLength="105" x="287" y="219.2607">value : boolean</text></g><!--class instrument--><g id="elem_instrument"><rect codeLine="26" fill="#F1F1F1" height="64.5625" id="instrument" rx="2.5" ry="2.5" style="stroke:#181818;stroke-width:0.5;" width="117" x="433" y="162"/><text fill="#000000" font-family="sans-serif" font-size="12" font-style="italic" lengthAdjust="spacing" textLength="79" x="452" y="178.1387">&#171;Parameter&#187;</text><text fill="#000000" font-family="sans-serif" font-size="14" lengthAdjust="spacing" textLength="75" x="454" y="193.9639">instrument</text><line style="stroke:#181818;stroke-width:0.5;" x1="434" x2="549" y1="202.2656" y2="202.2656"/><text fill="#000000" font-family="sans-serif" font-size="14" lengthAdjust="spacing" textLength="105" x="439" y="219.2607">value : boolean</text></g><!--class provenance--><g id="elem_provenance"><rect codeLine="30" fill="#F1F1F1" height="121.4844" id="provenance" rx="2.5" ry="2.5" style="stroke:#181818;stroke-width:0.5;" width="244" x="819.5" y="351"/><ellipse cx="896.25" cy="367" fill="#ADD1B2" rx="11" ry="11" style="stroke:#181818;stroke-width:1.0;"/><path d="M895.7188,373.9219 Q893.9688,373.9219 892.8281,373.1875 Q891.7031,372.4375 891.1406,371.0938 Q890.5938,369.7344 890.5938,367.9375 Q890.5938,365.9063 891.25,364.4531 Q891.9063,363 893.1875,362.2188 Q894.4688,361.4375 896.3438,361.4375 Q897.2344,361.4375 897.9063,361.625 Q898.5781,361.7969 899.2656,362.1406 L898.4531,364.1563 Q897.8281,363.8438 897.2813,363.7188 Q896.75,363.5938 896.2656,363.5938 Q895.0938,363.5938 894.3906,364.125 Q893.6875,364.6563 893.3906,365.6094 Q893.0938,366.5625 893.0938,367.8281 Q893.0938,369.8438 893.8125,370.8125 Q894.5313,371.7656 896.125,371.7656 Q896.7188,371.7656 897.3438,371.6094 Q897.9688,371.4531 898.7969,371.0781 L898.7969,373.2969 Q898.0625,373.6094 897.2656,373.7656 Q896.4844,373.9219 895.7188,373.9219 Z " fill="#000000"/><text fill="#000000" font-family="sans-serif" font-size="14" lengthAdjust="spacing" textLength="82" x="916.75" y="371.8467">provenance</text><line style="stroke:#181818;stroke-width:0.5;" x1="820.5" x2="1062.5" y1="383" y2="383"/><text fill="#000000" font-family="sans-serif" font-size="14" lengthAdjust="spacing" textLength="135" x="825.5" y="399.9951">version : string {O}</text><text fill="#000000" font-family="sans-serif" font-size="14" lengthAdjust="spacing" textLength="176" x="825.5" y="416.292">build_commit : string {O}</text><text fill="#000000" font-family="sans-serif" font-size="14" lengthAdjust="spacing" textLength="232" x="825.5" y="432.5889">build_timestamp : timestamp {O}</text><text fill="#000000" font-family="sans-serif" font-size="14" lengthAdjust="spacing" textLength="156" x="825.5" y="448.8857">build_host : string {O}</text><text fill="#000000" font-family="sans-serif" font-size="14" lengthAdjust="spacing" textLength="172" x="825.5" y="465.1826">bundles : string -&gt; string</text></g><!--class ServerError.1--><g id="elem_ServerError.1"><rect codeLine="38" fill="#F1F1F1" height="40.2656" id="ServerError.1" rx="2.5" ry="2.5" style="stroke:#181818;stroke-width:0.5;" width="96" x="149.5" y="174.5"/><text fill="#000000" font-family="sans-serif" font-size="12" font-style="italic" lengthAdjust="spacing" textLength="74" x="160.5" y="190.6387">&#171;Response&#187;</text><text fill="#000000" font-family="sans-serif" font-size="14" lengthAdjust="spacing" textLength="90" x="152.5" y="206.4639">ServerError.1</text></g><!--class BadRequest--><g id="elem_BadRequest"><rect codeLine="41" fill="#F1F1F1" height="40.2656" id="BadRequest" rx="2.5" ry="2.5" style="stroke:#181818;stroke-width:0.5;" width="92" x="47.5" y="281"/><text fill="#000000" font-family="sans-serif" font-size="12" font-style="italic" lengthAdjust="spacing" textLength="74" x="56.5" y="297.1387">&#171;Response&#187;</text><text fill="#000000" font-family="sans-serif" font-size="14" lengthAdjust="spacing" textLength="86" x="50.5" y="312.9639">BadRequest</text></g><!--class ClientError.errors.location--><g id="elem_ClientError.errors.location"><rect codeLine="44" fill="#F1F1F1" height="88.8906" id="ClientError.errors.location" rx="2.5" ry="2.5" style="stroke:#181818;stroke-width:0.5;" width="207" x="7" y="833"/><ellipse cx="22" cy="849" fill="#ADD1B2" rx="11" ry="11" style="stroke:#181818;stroke-width:1.0;"/><path d="M21.4688,855.9219 Q19.7188,855.9219 18.5781,855.1875 Q17.4531,854.4375 16.8906,853.0938 Q16.3438,851.7344 16.3438,849.9375 Q16.3438,847.9063 17,846.4531 Q17.6563,845 18.9375,844.2188 Q20.2188,843.4375 22.0938,843.4375 Q22.9844,843.4375 23.6563,843.625 Q24.3281,843.7969 25.0156,844.1406 L24.2031,846.1563 Q23.5781,845.8438 23.0313,845.7188 Q22.5,845.5938 22.0156,845.5938 Q20.8438,845.5938 20.1406,846.125 Q19.4375,846.6563 19.1406,847.6094 Q18.8438,848.5625 18.8438,849.8281 Q18.8438,851.8438 19.5625,852.8125 Q20.2813,853.7656 21.875,853.7656 Q22.4688,853.7656 23.0938,853.6094 Q23.7188,853.4531 24.5469,853.0781 L24.5469,855.2969 Q23.8125,855.6094 23.0156,855.7656 Q22.2344,855.9219 21.4688,855.9219 Z " fill="#000000"/><text fill="#000000" font-family="sans-serif" font-size="14" lengthAdjust="spacing" textLength="175" x="36" y="853.8467">ClientError.errors.location</text><line style="stroke:#181818;stroke-width:0.5;" x1="8" x2="213" y1="865" y2="865"/><text fill="#000000" font-family="sans-serif" font-size="14" lengthAdjust="spacing" textLength="71" x="13" y="881.9951">file : string</text><text fill="#000000" font-family="sans-serif" font-size="14" lengthAdjust="spacing" textLength="87" x="13" y="898.292">row : integer</text><text fill="#000000" font-family="sans-serif" font-size="14" lengthAdjust="spacing" textLength="82" x="13" y="914.5889">col : integer</text></g><!--class explain--><g id="elem_explain"><rect codeLine="50" fill="#F1F1F1" height="113.4531" id="explain" rx="2.5" ry="2.5" style="stroke:#181818;stroke-width:0.5;" width="81" x="585" y="138"/><text fill="#000000" font-family="sans-serif" font-size="12" font-style="italic" lengthAdjust="spacing" textLength="79" x="586" y="154.1387">&#171;Parameter&#187;</text><text fill="#000000" font-family="sans-serif" font-size="14" lengthAdjust="spacing" textLength="48" x="601.5" y="169.9639">explain</text><line style="stroke:#181818;stroke-width:0.5;" x1="586" x2="665" y1="178.2656" y2="178.2656"/><text fill="#000000" font-family="sans-serif" font-size="14" lengthAdjust="spacing" textLength="40" x="591" y="195.2607">notes</text><text fill="#000000" font-family="sans-serif" font-size="14" lengthAdjust="spacing" textLength="26" x="591" y="211.5576">fails</text><text fill="#000000" font-family="sans-serif" font-size="14" lengthAdjust="spacing" textLength="19" x="591" y="227.8545">full</text><text fill="#000000" font-family="sans-serif" font-size="14" lengthAdjust="spacing" textLength="45" x="591" y="244.1514">debug</text></g><!--class SuccessfulPolicyEvaluation--><g id="elem_SuccessfulPolicyEvaluation"><rect codeLine="57" fill="#F1F1F1" height="80.8594" id="SuccessfulPolicyEvaluation" rx="2.5" ry="2.5" style="stroke:#181818;stroke-width:0.5;" width="190" x="846.5" y="154"/><text fill="#000000" font-family="sans-serif" font-size="12" font-style="italic" lengthAdjust="spacing" textLength="74" x="904.5" y="170.1387">&#171;Response&#187;</text><text fill="#000000" font-family="sans-serif" font-size="14" lengthAdjust="spacing" textLength="184" x="849.5" y="185.9639">SuccessfulPolicyEvaluation</text><line style="stroke:#181818;stroke-width:0.5;" x1="847.5" x2="1035.5" y1="194.2656" y2="194.2656"/><text fill="#000000" font-family="sans-serif" font-size="14" lengthAdjust="spacing" textLength="167" x="852.5" y="211.2607">metrics : string -&gt; string</text><text fill="#000000" font-family="sans-serif" font-size="14" lengthAdjust="spacing" textLength="162" x="852.5" y="227.5576">decision_id : string {O}</text></g><!--class strict-builtin-errors--><g id="elem_strict-builtin-errors"><rect codeLine="62" fill="#F1F1F1" height="64.5625" id="strict-builtin-errors" rx="2.5" ry="2.5" style="stroke:#181818;stroke-width:0.5;" width="132" x="1754.5" y="162"/><text fill="#000000" font-family="sans-serif" font-size="12" font-style="italic" lengthAdjust="spacing" textLength="79" x="1781" y="178.1387">&#171;Parameter&#187;</text><text fill="#000000" font-family="sans-serif" font-size="14" lengthAdjust="spacing" textLength="126" x="1757.5" y="193.9639">strict-builtin-errors</text><line style="stroke:#181818;stroke-width:0.5;" x1="1755.5" x2="1885.5" y1="202.2656" y2="202.2656"/><text fill="#000000" font-family="sans-serif" font-size="14" lengthAdjust="spacing" textLength="105" x="1760.5" y="219.2607">value : boolean</text></g><!--class result--><g id="elem_result"><rect codeLine="66" fill="#F1F1F1" height="32" id="result" rx="2.5" ry="2.5" style="stroke:#181818;stroke-width:0.5;" width="71" x="1231" y="395.5"/><ellipse cx="1246" cy="411.5" fill="#ADD1B2" rx="11" ry="11" style="stroke:#181818;stroke-width:1.0;"/><path d="M1245.4688,418.4219 Q1243.7188,418.4219 1242.5781,417.6875 Q1241.4531,416.9375 1240.8906,415.5938 Q1240.3438,414.2344 1240.3438,412.4375 Q1240.3438,410.4063 1241,408.9531 Q1241.6563,407.5 1242.9375,406.7188 Q1244.2188,405.9375 1246.0938,405.9375 Q1246.9844,405.9375 1247.6563,406.125 Q1248.3281,406.2969 1249.0156,406.6406 L1248.2031,408.6563 Q1247.5781,408.3438 1247.0313,408.2188 Q1246.5,408.0938 1246.0156,408.0938 Q1244.8438,408.0938 1244.1406,408.625 Q1243.4375,409.1563 1243.1406,410.1094 Q1242.8438,411.0625 1242.8438,412.3281 Q1242.8438,414.3438 1243.5625,415.3125 Q1244.2813,416.2656 1245.875,416.2656 Q1246.4688,416.2656 1247.0938,416.1094 Q1247.7188,415.9531 1248.5469,415.5781 L1248.5469,417.7969 Q1247.8125,418.1094 1247.0156,418.2656 Q1246.2344,418.4219 1245.4688,418.4219 Z " fill="#000000"/><text fill="#000000" font-family="sans-serif" font-size="14" lengthAdjust="spacing" textLength="39" x="1260" y="416.3467">result</text></g><!--class GzipAcceptEncoding--><g id="elem_GzipAcceptEncoding"><rect codeLine="69" fill="#F1F1F1" height="64.5625" id="GzipAcceptEncoding" rx="2.5" ry="2.5" style="stroke:#181818;stroke-width:0.5;" width="150" x="1921.5" y="162"/><text fill="#000000" font-family="sans-serif" font-size="12" font-style="italic" lengthAdjust="spacing" textLength="79" x="1957" y="178.1387">&#171;Parameter&#187;</text><text fill="#000000" font-family="sans-serif" font-size="14" lengthAdjust="spacing" textLength="144" x="1924.5" y="193.9639">GzipAcceptEncoding</text><line style="stroke:#181818;stroke-width:0.5;" x1="1922.5" x2="2070.5" y1="202.2656" y2="202.2656"/><text fill="#000000" font-family="sans-serif" font-size="14" lengthAdjust="spacing" textLength="29" x="1927.5" y="219.2607">gzip</text></g><!--class result.6--><g id="elem_result.6"><rect codeLine="73" fill="#F1F1F1" height="56.2969" id="result.6" rx="2.5" ry="2.5" style="stroke:#181818;stroke-width:0.5;" width="91" x="1221" y="166.5"/><ellipse cx="1239.15" cy="182.5" fill="#ADD1B2" rx="11" ry="11" style="stroke:#181818;stroke-width:1.0;"/><path d="M1238.6188,189.4219 Q1236.8688,189.4219 1235.7281,188.6875 Q1234.6031,187.9375 1234.0406,186.5938 Q1233.4938,185.2344 1233.4938,183.4375 Q1233.4938,181.4063 1234.15,179.9531 Q1234.8063,178.5 1236.0875,177.7188 Q1237.3688,176.9375 1239.2438,176.9375 Q1240.1344,176.9375 1240.8063,177.125 Q1241.4781,177.2969 1242.1656,177.6406 L1241.3531,179.6563 Q1240.7281,179.3438 1240.1813,179.2188 Q1239.65,179.0938 1239.1656,179.0938 Q1237.9938,179.0938 1237.2906,179.625 Q1236.5875,180.1563 1236.2906,181.1094 Q1235.9938,182.0625 1235.9938,183.3281 Q1235.9938,185.3438 1236.7125,186.3125 Q1237.4313,187.2656 1239.025,187.2656 Q1239.6188,187.2656 1240.2438,187.1094 Q1240.8688,186.9531 1241.6969,186.5781 L1241.6969,188.7969 Q1240.9625,189.1094 1240.1656,189.2656 Q1239.3844,189.4219 1238.6188,189.4219 Z " fill="#000000"/><text fill="#000000" font-family="sans-serif" font-size="14" lengthAdjust="spacing" textLength="52" x="1253.85" y="187.3467">result.6</text><line style="stroke:#181818;stroke-width:0.5;" x1="1222" x2="1311" y1="198.5" y2="198.5"/><text fill="#000000" font-family="sans-serif" font-size="14" lengthAdjust="spacing" textLength="79" x="1227" y="215.4951">value : map</text></g><!--class policyPath--><g id="elem_policyPath"><rect codeLine="77" fill="#F1F1F1" height="64.5625" id="policyPath" rx="2.5" ry="2.5" style="stroke:#181818;stroke-width:0.5;" width="100" x="2106.5" y="162"/><text fill="#000000" font-family="sans-serif" font-size="12" font-style="italic" lengthAdjust="spacing" textLength="79" x="2117" y="178.1387">&#171;Parameter&#187;</text><text fill="#000000" font-family="sans-serif" font-size="14" lengthAdjust="spacing" textLength="70" x="2121.5" y="193.9639">policyPath</text><line style="stroke:#181818;stroke-width:0.5;" x1="2107.5" x2="2205.5" y1="202.2656" y2="202.2656"/><text fill="#000000" font-family="sans-serif" font-size="14" lengthAdjust="spacing" textLength="88" x="2112.5" y="219.2607">value : string</text></g><!--class ServerError--><g id="elem_ServerError"><rect codeLine="81" fill="#F1F1F1" height="32" id="ServerError" rx="2.5" ry="2.5" style="stroke:#181818;stroke-width:0.5;" width="109" x="144" y="395.5"/><ellipse cx="159" cy="411.5" fill="#ADD1B2" rx="11" ry="11" style="stroke:#181818;stroke-width:1.0;"/><path d="M158.4688,418.4219 Q156.7188,418.4219 155.5781,417.6875 Q154.4531,416.9375 153.8906,415.5938 Q153.3438,414.2344 153.3438,412.4375 Q153.3438,410.4063 154,408.9531 Q154.6563,407.5 155.9375,406.7188 Q157.2188,405.9375 159.0938,405.9375 Q159.9844,405.9375 160.6563,406.125 Q161.3281,406.2969 162.0156,406.6406 L161.2031,408.6563 Q160.5781,408.3438 160.0313,408.2188 Q159.5,408.0938 159.0156,408.0938 Q157.8438,408.0938 157.1406,408.625 Q156.4375,409.1563 156.1406,410.1094 Q155.8438,411.0625 155.8438,412.3281 Q155.8438,414.3438 156.5625,415.3125 Q157.2813,416.2656 158.875,416.2656 Q159.4688,416.2656 160.0938,416.1094 Q160.7188,415.9531 161.5469,415.5781 L161.5469,417.7969 Q160.8125,418.1094 160.0156,418.2656 Q159.2344,418.4219 158.4688,418.4219 Z " fill="#000000"/><text fill="#000000" font-family="sans-serif" font-size="14" lengthAdjust="spacing" textLength="77" x="173" y="416.3467">ServerError</text></g><!--class result.2--><g id="elem_result.2"><rect codeLine="84" fill="#F1F1F1" height="56.2969" id="result.2" rx="2.5" ry="2.5" style="stroke:#181818;stroke-width:0.5;" width="100" x="1347.5" y="166.5"/><ellipse cx="1369.7" cy="182.5" fill="#ADD1B2" rx="11" ry="11" style="stroke:#181818;stroke-width:1.0;"/><path d="M1369.1688,189.4219 Q1367.4188,189.4219 1366.2781,188.6875 Q1365.1531,187.9375 1364.5906,186.5938 Q1364.0438,185.2344 1364.0438,183.4375 Q1364.0438,181.4063 1364.7,179.9531 Q1365.3563,178.5 1366.6375,177.7188 Q1367.9188,176.9375 1369.7938,176.9375 Q1370.6844,176.9375 1371.3563,177.125 Q1372.0281,177.2969 1372.7156,177.6406 L1371.9031,179.6563 Q1371.2781,179.3438 1370.7313,179.2188 Q1370.2,179.0938 1369.7156,179.0938 Q1368.5438,179.0938 1367.8406,179.625 Q1367.1375,180.1563 1366.8406,181.1094 Q1366.5438,182.0625 1366.5438,183.3281 Q1366.5438,185.3438 1367.2625,186.3125 Q1367.9813,187.2656 1369.575,187.2656 Q1370.1688,187.2656 1370.7938,187.1094 Q1371.4188,186.9531 1372.2469,186.5781 L1372.2469,188.7969 Q1371.5125,189.1094 1370.7156,189.2656 Q1369.9344,189.4219 1369.1688,189.4219 Z " fill="#000000"/><text fill="#000000" font-family="sans-serif" font-size="14" lengthAdjust="spacing" textLength="52" x="1385.3" y="187.3467">result.2</text><line style="stroke:#181818;stroke-width:0.5;" x1="1348.5" x2="1446.5" y1="198.5" y2="198.5"/><text fill="#000000" font-family="sans-serif" font-size="14" lengthAdjust="spacing" textLength="88" x="1353.5" y="215.4951">value : string</text></g><!--class executePolicy--><g id="elem_executePolicy"><rect codeLine="88" fill="#F5DEB3" height="54.2344" id="executePolicy" rx="2.5" ry="2.5" style="stroke:#181818;stroke-width:0.5;" width="170" x="856.5" y="7"/><ellipse cx="871.5" cy="34.1172" fill="#ADD1B2" rx="11" ry="11" style="stroke:#181818;stroke-width:1.0;"/><path d="M870.9688,41.0391 Q869.2188,41.0391 868.0781,40.3047 Q866.9531,39.5547 866.3906,38.2109 Q865.8438,36.8516 865.8438,35.0547 Q865.8438,33.0234 866.5,31.5703 Q867.1563,30.1172 868.4375,29.3359 Q869.7188,28.5547 871.5938,28.5547 Q872.4844,28.5547 873.1563,28.7422 Q873.8281,28.9141 874.5156,29.2578 L873.7031,31.2734 Q873.0781,30.9609 872.5313,30.8359 Q872,30.7109 871.5156,30.7109 Q870.3438,30.7109 869.6406,31.2422 Q868.9375,31.7734 868.6406,32.7266 Q868.3438,33.6797 868.3438,34.9453 Q868.3438,36.9609 869.0625,37.9297 Q869.7813,38.8828 871.375,38.8828 Q871.9688,38.8828 872.5938,38.7266 Q873.2188,38.5703 874.0469,38.1953 L874.0469,40.4141 Q873.3125,40.7266 872.5156,40.8828 Q871.7344,41.0391 870.9688,41.0391 Z " fill="#000000"/><text fill="#000000" font-family="sans-serif" font-size="12" font-style="italic" lengthAdjust="spacing" textLength="42" x="933.5" y="23.1387">&#171;Path&#187;</text><text fill="#000000" font-family="sans-serif" font-size="12" font-style="italic" lengthAdjust="spacing" textLength="142" x="883.5" y="37.1074">&#171;GET /v1/data/{path}&#187;</text><text fill="#000000" font-family="sans-serif" font-size="14" lengthAdjust="spacing" textLength="95" x="907" y="52.9326">executePolicy</text></g><!--class ClientError--><g id="elem_ClientError"><rect codeLine="91" fill="#F1F1F1" height="72.5938" id="ClientError" rx="2.5" ry="2.5" style="stroke:#181818;stroke-width:0.5;" width="128" x="46.5" y="533"/><ellipse cx="72.3" cy="549" fill="#ADD1B2" rx="11" ry="11" style="stroke:#181818;stroke-width:1.0;"/><path d="M71.7688,555.9219 Q70.0188,555.9219 68.8781,555.1875 Q67.7531,554.4375 67.1906,553.0938 Q66.6438,551.7344 66.6438,549.9375 Q66.6438,547.9063 67.3,546.4531 Q67.9563,545 69.2375,544.2188 Q70.5188,543.4375 72.3938,543.4375 Q73.2844,543.4375 73.9563,543.625 Q74.6281,543.7969 75.3156,544.1406 L74.5031,546.1563 Q73.8781,545.8438 73.3313,545.7188 Q72.8,545.5938 72.3156,545.5938 Q71.1438,545.5938 70.4406,546.125 Q69.7375,546.6563 69.4406,547.6094 Q69.1438,548.5625 69.1438,549.8281 Q69.1438,551.8438 69.8625,552.8125 Q70.5813,553.7656 72.175,553.7656 Q72.7688,553.7656 73.3938,553.6094 Q74.0188,553.4531 74.8469,553.0781 L74.8469,555.2969 Q74.1125,555.6094 73.3156,555.7656 Q72.5344,555.9219 71.7688,555.9219 Z " fill="#000000"/><text fill="#000000" font-family="sans-serif" font-size="14" lengthAdjust="spacing" textLength="72" x="88.7" y="553.8467">ClientError</text><line style="stroke:#181818;stroke-width:0.5;" x1="47.5" x2="173.5" y1="565" y2="565"/><text fill="#000000" font-family="sans-serif" font-size="14" lengthAdjust="spacing" textLength="87" x="52.5" y="581.9951">code : string</text><text fill="#000000" font-family="sans-serif" font-size="14" lengthAdjust="spacing" textLength="116" x="52.5" y="598.292">message : string</text></g><!--class result.3--><g id="elem_result.3"><rect codeLine="96" fill="#F1F1F1" height="56.2969" id="result.3" rx="2.5" ry="2.5" style="stroke:#181818;stroke-width:0.5;" width="110" x="701.5" y="166.5"/><ellipse cx="728.2" cy="182.5" fill="#ADD1B2" rx="11" ry="11" style="stroke:#181818;stroke-width:1.0;"/><path d="M727.6688,189.4219 Q725.9188,189.4219 724.7781,188.6875 Q723.6531,187.9375 723.0906,186.5938 Q722.5438,185.2344 722.5438,183.4375 Q722.5438,181.4063 723.2,179.9531 Q723.8563,178.5 725.1375,177.7188 Q726.4188,176.9375 728.2938,176.9375 Q729.1844,176.9375 729.8563,177.125 Q730.5281,177.2969 731.2156,177.6406 L730.4031,179.6563 Q729.7781,179.3438 729.2313,179.2188 Q728.7,179.0938 728.2156,179.0938 Q727.0438,179.0938 726.3406,179.625 Q725.6375,180.1563 725.3406,181.1094 Q725.0438,182.0625 725.0438,183.3281 Q725.0438,185.3438 725.7625,186.3125 Q726.4813,187.2656 728.075,187.2656 Q728.6688,187.2656 729.2938,187.1094 Q729.9188,186.9531 730.7469,186.5781 L730.7469,188.7969 Q730.0125,189.1094 729.2156,189.2656 Q728.4344,189.4219 727.6688,189.4219 Z " fill="#000000"/><text fill="#000000" font-family="sans-serif" font-size="14" lengthAdjust="spacing" textLength="52" x="744.8" y="187.3467">result.3</text><line style="stroke:#181818;stroke-width:0.5;" x1="702.5" x2="810.5" y1="198.5" y2="198.5"/><text fill="#000000" font-family="sans-serif" font-size="14" lengthAdjust="spacing" textLength="98" x="707.5" y="215.4951">value : integer</text></g><!--class pretty--><g id="elem_pretty"><rect codeLine="100" fill="#F1F1F1" height="64.5625" id="pretty" rx="2.5" ry="2.5" style="stroke:#181818;stroke-width:0.5;" width="117" x="2242" y="162"/><text fill="#000000" font-family="sans-serif" font-size="12" font-style="italic" lengthAdjust="spacing" textLength="79" x="2261" y="178.1387">&#171;Parameter&#187;</text><text fill="#000000" font-family="sans-serif" font-size="14" lengthAdjust="spacing" textLength="40" x="2280.5" y="193.9639">pretty</text><line style="stroke:#181818;stroke-width:0.5;" x1="2243" x2="2358" y1="202.2656" y2="202.2656"/><text fill="#000000" font-family="sans-serif" font-size="14" lengthAdjust="spacing" textLength="105" x="2248" y="219.2607">value : boolean</text></g><!--class result.1--><g id="elem_result.1"><rect codeLine="104" fill="#F1F1F1" height="56.2969" id="result.1" rx="2.5" ry="2.5" style="stroke:#181818;stroke-width:0.5;" width="117" x="1483" y="166.5"/><ellipse cx="1512.85" cy="182.5" fill="#ADD1B2" rx="11" ry="11" style="stroke:#181818;stroke-width:1.0;"/><path d="M1512.3188,189.4219 Q1510.5688,189.4219 1509.4281,188.6875 Q1508.3031,187.9375 1507.7406,186.5938 Q1507.1938,185.2344 1507.1938,183.4375 Q1507.1938,181.4063 1507.85,179.9531 Q1508.5063,178.5 1509.7875,177.7188 Q1511.0688,176.9375 1512.9438,176.9375 Q1513.8344,176.9375 1514.5063,177.125 Q1515.1781,177.2969 1515.8656,177.6406 L1515.0531,179.6563 Q1514.4281,179.3438 1513.8813,179.2188 Q1513.35,179.0938 1512.8656,179.0938 Q1511.6938,179.0938 1510.9906,179.625 Q1510.2875,180.1563 1509.9906,181.1094 Q1509.6938,182.0625 1509.6938,183.3281 Q1509.6938,185.3438 1510.4125,186.3125 Q1511.1313,187.2656 1512.725,187.2656 Q1513.3188,187.2656 1513.9438,187.1094 Q1514.5688,186.9531 1515.3969,186.5781 L1515.3969,188.7969 Q1514.6625,189.1094 1513.8656,189.2656 Q1513.0844,189.4219 1512.3188,189.4219 Z " fill="#000000"/><text fill="#000000" font-family="sans-serif" font-size="14" lengthAdjust="spacing" textLength="52" x="1530.15" y="187.3467">result.1</text><line style="stroke:#181818;stroke-width:0.5;" x1="1484" x2="1599" y1="198.5" y2="198.5"/><text fill="#000000" font-family="sans-serif" font-size="14" lengthAdjust="spacing" textLength="105" x="1489" y="215.4951">value : boolean</text></g><!--class metrics--><g id="elem_metrics"><rect codeLine="108" fill="#F1F1F1" height="64.5625" id="metrics" rx="2.5" ry="2.5" style="stroke:#181818;stroke-width:0.5;" width="117" x="2394" y="162"/><text fill="#000000" font-family="sans-serif" font-size="12" font-style="italic" lengthAdjust="spacing" textLength="79" x="2413" y="178.1387">&#171;Parameter&#187;</text><text fill="#000000" font-family="sans-serif" font-size="14" lengthAdjust="spacing" textLength="51" x="2427" y="193.9639">metrics</text><line style="stroke:#181818;stroke-width:0.5;" x1="2395" x2="2510" y1="202.2656" y2="202.2656"/><text fill="#000000" font-family="sans-serif" font-size="14" lengthAdjust="spacing" textLength="105" x="2400" y="219.2607">value : boolean</text></g><!--class result.5--><g id="elem_result.5"><rect codeLine="112" fill="#F1F1F1" height="56.2969" id="result.5" rx="2.5" ry="2.5" style="stroke:#181818;stroke-width:0.5;" width="114" x="1071.5" y="166.5"/><ellipse cx="1100" cy="182.5" fill="#ADD1B2" rx="11" ry="11" style="stroke:#181818;stroke-width:1.0;"/><path d="M1099.4688,189.4219 Q1097.7188,189.4219 1096.5781,188.6875 Q1095.4531,187.9375 1094.8906,186.5938 Q1094.3438,185.2344 1094.3438,183.4375 Q1094.3438,181.4063 1095,179.9531 Q1095.6563,178.5 1096.9375,177.7188 Q1098.2188,176.9375 1100.0938,176.9375 Q1100.9844,176.9375 1101.6563,177.125 Q1102.3281,177.2969 1103.0156,177.6406 L1102.2031,179.6563 Q1101.5781,179.3438 1101.0313,179.2188 Q1100.5,179.0938 1100.0156,179.0938 Q1098.8438,179.0938 1098.1406,179.625 Q1097.4375,180.1563 1097.1406,181.1094 Q1096.8438,182.0625 1096.8438,183.3281 Q1096.8438,185.3438 1097.5625,186.3125 Q1098.2813,187.2656 1099.875,187.2656 Q1100.4688,187.2656 1101.0938,187.1094 Q1101.7188,186.9531 1102.5469,186.5781 L1102.5469,188.7969 Q1101.8125,189.1094 1101.0156,189.2656 Q1100.2344,189.4219 1099.4688,189.4219 Z " fill="#000000"/><text fill="#000000" font-family="sans-serif" font-size="14" lengthAdjust="spacing" textLength="52" x="1117" y="187.3467">result.5</text><line style="stroke:#181818;stroke-width:0.5;" x1="1072.5" x2="1184.5" y1="198.5" y2="198.5"/><text fill="#000000" font-family="sans-serif" font-size="14" lengthAdjust="spacing" textLength="102" x="1077.5" y="215.4951">value : decimal</text></g><!--link result.4 to result.4.1--><g id="link_result.4_result.4.1"><path codeLine="116" d="M1677.5,210.62 C1677.5,250.09 1677.5,349.94 1677.5,389.4 " fill="none" id="result.4-to-result.4.1" style="stroke:#181818;stroke-width:1.0;"/><polygon fill="#181818" points="1677.5,395.4,1681.5,386.4,1677.5,390.4,1673.5,386.4,1677.5,395.4" style="stroke:#181818;stroke-width:1.0;"/><text fill="#000000" font-family="sans-serif" font-size="13" lengthAdjust="spacing" textLength="7" x="1669.2969" y="384.3772">*</text></g><!--link result.1 to result--><g id="link_result.1_result"><path codeLine="118" d="M1506.95,222.51 C1448.53,268.19 1346.2601,348.1429 1300.1401,384.2029 " fill="none" id="result.1-to-result" style="stroke:#181818;stroke-width:1.0;"/><polygon fill="none" points="1285.96,395.29,1303.8358,388.9296,1296.4445,379.4762,1285.96,395.29" style="stroke:#181818;stroke-width:1.0;"/></g><!--link result.2 to result--><g id="link_result.2_result"><path codeLine="120" d="M1380.91,222.73 C1353.03,268.49 1307.0369,343.9792 1285.1169,379.9492 " fill="none" id="result.2-to-result" style="stroke:#181818;stroke-width:1.0;"/><polygon fill="none" points="1275.75,395.32,1290.2405,383.0715,1279.9933,376.8269,1275.75,395.32" style="stroke:#181818;stroke-width:1.0;"/></g><!--link result.3 to result--><g id="link_result.3_result"><path codeLine="122" d="M787.3,222.6 C799.54,232.44 814.12,243.09 828.5,251 C901.44,291.13 1122.9302,364.251 1213.8002,393.581 " fill="none" id="result.3-to-result" style="stroke:#181818;stroke-width:1.0;"/><polygon fill="none" points="1230.93,399.11,1215.6432,387.8711,1211.9572,399.291,1230.93,399.11" style="stroke:#181818;stroke-width:1.0;"/></g><!--link result.4 to result--><g id="link_result.4_result"><path codeLine="124" d="M1663.81,210.59 C1652.31,222.64 1634.99,239.38 1617.5,251 C1510.88,321.85 1384.674,369.9554 1319.044,392.7454 " fill="none" id="result.4-to-result" style="stroke:#181818;stroke-width:1.0;"/><polygon fill="none" points="1302.04,398.65,1321.0122,398.4134,1317.0758,387.0774,1302.04,398.65" style="stroke:#181818;stroke-width:1.0;"/></g><!--link result.5 to result--><g id="link_result.5_result"><path codeLine="126" d="M1145.98,222.73 C1175.35,268.49 1223.9464,344.2024 1247.0364,380.1724 " fill="none" id="result.5-to-result" style="stroke:#181818;stroke-width:1.0;"/><polygon fill="none" points="1256.76,395.32,1252.0856,376.9311,1241.9872,383.4136,1256.76,395.32" style="stroke:#181818;stroke-width:1.0;"/></g><!--link result.6 to result--><g id="link_result.6_result"><path codeLine="128" d="M1266.5,222.73 C1266.5,268.49 1266.5,341.35 1266.5,377.32 " fill="none" id="result.6-to-result" style="stroke:#181818;stroke-width:1.0;"/><polygon fill="none" points="1266.5,395.32,1272.5,377.32,1260.5,377.32,1266.5,395.32" style="stroke:#181818;stroke-width:1.0;"/></g><!--link ClientError.errors to ClientError.errors.location--><g id="link_ClientError.errors_ClientError.errors.location"><path codeLine="130" d="M110.5,768.29 C110.5,791.05 110.5,802.67 110.5,826.81 " fill="none" id="ClientError.errors-ClientError.errors.location" style="stroke:#181818;stroke-width:1.0;"/><polygon fill="#181818" points="110.5,756.29,106.5,762.29,110.5,768.29,114.5,762.29,110.5,756.29" style="stroke:#181818;stroke-width:1.0;"/><polygon fill="#181818" points="110.5,832.81,114.5,823.81,110.5,827.81,106.5,823.81,110.5,832.81" style="stroke:#181818;stroke-width:1.0;"/><text fill="#000000" font-family="sans-serif" font-size="13" lengthAdjust="spacing" textLength="50" x="111.5" y="799.0669">location</text><text fill="#000000" font-family="sans-serif" font-size="13" lengthAdjust="spacing" textLength="24" x="84.6625" y="821.9038">0..1</text></g><!--link ClientError to ClientError.errors--><g id="link_ClientError_ClientError.errors"><path codeLine="132" d="M110.5,606.33 C110.5,629.51 110.5,653.58 110.5,676.75 " fill="none" id="ClientError-to-ClientError.errors" style="stroke:#181818;stroke-width:1.0;"/><polygon fill="#181818" points="110.5,682.75,114.5,673.75,110.5,677.75,106.5,673.75,110.5,682.75" style="stroke:#181818;stroke-width:1.0;"/><text fill="#000000" font-family="sans-serif" font-size="13" lengthAdjust="spacing" textLength="38" x="111.5" y="649.0669">errors</text><text fill="#000000" font-family="sans-serif" font-size="13" lengthAdjust="spacing" textLength="7" x="102.8766" y="671.9829">*</text></g><!--link ServerError to ClientError--><g id="link_ServerError_ClientError"><path codeLine="134" d="M189.9,427.74 C176.28,451.89 152.3074,494.3838 133.6174,527.5238 " fill="none" id="ServerError-to-ClientError" style="stroke:#181818;stroke-width:1.0;"/><polygon fill="#181818" points="130.67,532.75,138.5752,526.8757,133.1262,528.3949,131.607,522.9458,130.67,532.75" style="stroke:#181818;stroke-width:1.0;"/><text fill="#000000" font-family="sans-serif" font-size="13" lengthAdjust="spacing" textLength="8" x="125.5503" y="521.9829">1</text></g><!--link SuccessfulPolicyEvaluation to result--><g id="link_SuccessfulPolicyEvaluation_result"><path codeLine="136" d="M1001.49,235.18 C1074.49,283.48 1189.1258,359.3197 1238.7858,392.1697 " fill="none" id="SuccessfulPolicyEvaluation-to-result" style="stroke:#181818;stroke-width:1.0;"/><polygon fill="#181818" points="1243.79,395.48,1238.4905,387.1785,1239.6198,392.7214,1234.0768,393.8507,1243.79,395.48" style="stroke:#181818;stroke-width:1.0;"/><text fill="#000000" font-family="sans-serif" font-size="13" lengthAdjust="spacing" textLength="24" x="1207.8584" y="384.4847">0..1</text></g><!--link SuccessfulPolicyEvaluation to provenance--><g id="link_SuccessfulPolicyEvaluation_provenance"><path codeLine="138" d="M941.5,235.18 C941.5,267.58 941.5,307.87 941.5,344.74 " fill="none" id="SuccessfulPolicyEvaluation-to-provenance" style="stroke:#181818;stroke-width:1.0;"/><polygon fill="#181818" points="941.5,350.74,945.5,341.74,941.5,345.74,937.5,341.74,941.5,350.74" style="stroke:#181818;stroke-width:1.0;"/><text fill="#000000" font-family="sans-serif" font-size="13" lengthAdjust="spacing" textLength="24" x="916.1125" y="339.894">0..1</text></g><!--link BadRequest to ClientError--><g id="link_BadRequest_ClientError"><path codeLine="140" d="M94.72,321.17 C97.55,365.44 104.178,469.4322 107.828,526.6422 " fill="none" id="BadRequest-to-ClientError" style="stroke:#181818;stroke-width:1.0;"/><polygon fill="#181818" points="108.21,532.63,111.6288,523.3936,107.8916,527.6401,103.6451,523.9029,108.21,532.63" style="stroke:#181818;stroke-width:1.0;"/><text fill="#000000" font-family="sans-serif" font-size="13" lengthAdjust="spacing" textLength="8" x="99.0896" y="521.8415">1</text></g><!--link ServerError.1 to ServerError--><g id="link_ServerError.1_ServerError"><path codeLine="142" d="M197.59,214.58 C197.78,256.72 198.2218,351.0001 198.4018,389.2901 " fill="none" id="ServerError.1-to-ServerError" style="stroke:#181818;stroke-width:1.0;"/><polygon fill="#181818" points="198.43,395.29,202.3876,386.2713,198.4065,390.2901,194.3877,386.3089,198.43,395.29" style="stroke:#181818;stroke-width:1.0;"/><text fill="#000000" font-family="sans-serif" font-size="13" lengthAdjust="spacing" textLength="8" x="189.0818" y="384.525">1</text></g><!--link executePolicy to policyPath--><g id="link_executePolicy_policyPath"><path codeLine="144" d="M1026.87,37.13 C1234.75,42.76 1762.92,59.76 1936.5,91 C2006.09,103.52 2026.18,104.58 2088.5,138 C2100.59,144.48 2107.9588,149.4332 2118.4288,158.1032 " fill="none" id="executePolicy-to-policyPath" style="stroke:#181818;stroke-width:1.0;"/><polygon fill="#181818" points="2123.05,161.93,2118.6693,153.109,2119.199,158.741,2113.567,159.2707,2123.05,161.93" style="stroke:#181818;stroke-width:1.0;"/><text fill="#000000" font-family="sans-serif" font-size="13" lengthAdjust="spacing" textLength="29" x="2019.5" y="104.0669">path</text><text fill="#000000" font-family="sans-serif" font-size="13" lengthAdjust="spacing" textLength="8" x="2107.3259" y="150.7913">1</text></g><!--link executePolicy to GzipAcceptEncoding--><g id="link_executePolicy_GzipAcceptEncoding"><path codeLine="146" d="M1026.61,35.32 C1172.84,37.14 1480.74,46.48 1736.5,91 C1812.46,104.22 1832.67,107.53 1903.5,138 C1918.87,144.61 1929.6601,150.2345 1943.8901,158.8045 " fill="none" id="executePolicy-to-GzipAcceptEncoding" style="stroke:#181818;stroke-width:1.0;"/><polygon fill="#181818" points="1949.03,161.9,1943.3839,153.8302,1944.7468,159.3204,1939.2566,160.6834,1949.03,161.9" style="stroke:#181818;stroke-width:1.0;"/><text fill="#000000" font-family="sans-serif" font-size="13" lengthAdjust="spacing" textLength="107" x="1820.5" y="104.0669">Accept-Encoding</text><text fill="#000000" font-family="sans-serif" font-size="13" lengthAdjust="spacing" textLength="8" x="1930.4143" y="150.7551">1</text></g><!--link executePolicy to pretty--><g id="link_executePolicy_pretty"><path codeLine="148" d="M1026.73,36.79 C1251.99,41.91 1859.38,58.41 2057.5,91 C2133.16,103.45 2154.46,104.63 2223.5,138 C2236.85,144.45 2245.4848,149.691 2257.3548,158.361 " fill="none" id="executePolicy-to-pretty" style="stroke:#181818;stroke-width:1.0;"/><polygon fill="#181818" points="2262.2,161.9,2257.2916,153.3614,2258.1624,158.9509,2252.5729,159.8217,2262.2,161.9" style="stroke:#181818;stroke-width:1.0;"/><text fill="#000000" font-family="sans-serif" font-size="13" lengthAdjust="spacing" textLength="38" x="2147.5" y="104.0669">pretty</text><text fill="#000000" font-family="sans-serif" font-size="13" lengthAdjust="spacing" textLength="8" x="2245.4756" y="150.7551">1</text></g><!--link executePolicy to provenance.1--><g id="link_executePolicy_provenance.1"><path codeLine="150" d="M856.38,40.86 C773.44,47.94 644.28,62.62 535.5,91 C480.08,105.46 465.71,110.44 415.5,138 C403.04,144.84 395.1088,149.8924 383.6788,158.2724 " fill="none" id="executePolicy-to-provenance.1" style="stroke:#181818;stroke-width:1.0;"/><polygon fill="#181818" points="378.84,161.82,388.4633,159.7244,382.8724,158.8636,383.7332,153.2727,378.84,161.82" style="stroke:#181818;stroke-width:1.0;"/><text fill="#000000" font-family="sans-serif" font-size="13" lengthAdjust="spacing" textLength="75" x="536.5" y="104.0669">provenance</text><text fill="#000000" font-family="sans-serif" font-size="13" lengthAdjust="spacing" textLength="8" x="377.7976" y="151.0326">1</text></g><!--link executePolicy to explain--><g id="link_executePolicy_explain"><path codeLine="152" d="M856.23,59.85 C803.96,77.25 737.04,103.56 683.5,138 C677.52,141.85 676.191,142.4734 670.581,147.2434 " fill="none" id="executePolicy-to-explain" style="stroke:#181818;stroke-width:1.0;"/><polygon fill="#181818" points="666.01,151.13,675.4576,148.3475,669.8192,147.8912,670.2755,142.2527,666.01,151.13" style="stroke:#181818;stroke-width:1.0;"/><text fill="#000000" font-family="sans-serif" font-size="13" lengthAdjust="spacing" textLength="45" x="772.5" y="104.0669">explain</text><text fill="#000000" font-family="sans-serif" font-size="13" lengthAdjust="spacing" textLength="8" x="673.9383" y="139.1071">1</text></g><!--link executePolicy to metrics--><g id="link_executePolicy_metrics"><path codeLine="154" d="M1026.86,36.5 C1270.91,41.16 1968.52,57.15 2194.5,91 C2277.12,103.38 2300.98,102.28 2376.5,138 C2389.94,144.36 2398.6124,149.6336 2410.4124,158.3936 " fill="none" id="executePolicy-to-metrics" style="stroke:#181818;stroke-width:1.0;"/><polygon fill="#181818" points="2415.23,161.97,2410.3879,153.3936,2411.2154,158.9896,2405.6193,159.8171,2415.23,161.97" style="stroke:#181818;stroke-width:1.0;"/><text fill="#000000" font-family="sans-serif" font-size="13" lengthAdjust="spacing" textLength="48" x="2298.5" y="104.0669">metrics</text><text fill="#000000" font-family="sans-serif" font-size="13" lengthAdjust="spacing" textLength="8" x="2398.7181" y="150.8395">1</text></g><!--link executePolicy to instrument--><g id="link_executePolicy_instrument"><path codeLine="156" d="M856.39,46.35 C800.58,55.19 726.56,69.61 663.5,91 C618.51,106.26 608.17,113.45 567.5,138 C555.61,145.18 548.0877,150.1746 536.8577,158.3646 " fill="none" id="executePolicy-to-instrument" style="stroke:#181818;stroke-width:1.0;"/><polygon fill="#181818" points="532.01,161.9,541.6386,159.8287,536.0498,158.9538,536.9247,153.365,532.01,161.9" style="stroke:#181818;stroke-width:1.0;"/><text fill="#000000" font-family="sans-serif" font-size="13" lengthAdjust="spacing" textLength="70" x="664.5" y="104.0669">instrument</text><text fill="#000000" font-family="sans-serif" font-size="13" lengthAdjust="spacing" textLength="8" x="531.5402" y="150.7551">1</text></g><!--link executePolicy to strict-builtin-errors--><g id="link_executePolicy_strict-builtin-errors"><path codeLine="158" d="M1026.56,41.14 C1203.95,54.74 1607.62,90.02 1736.5,138 C1751.9,143.73 1762.3522,149.3606 1775.7022,158.4606 " fill="none" id="executePolicy-to-strict-builtin-errors" style="stroke:#181818;stroke-width:1.0;"/><polygon fill="#181818" points="1780.66,161.84,1775.4763,153.4657,1776.5285,159.0238,1770.9704,160.076,1780.66,161.84" style="stroke:#181818;stroke-width:1.0;"/><text fill="#000000" font-family="sans-serif" font-size="13" lengthAdjust="spacing" textLength="118" x="1609.5" y="104.0669">strict-builtin-errors</text><text fill="#000000" font-family="sans-serif" font-size="13" lengthAdjust="spacing" textLength="8" x="1764.029" y="151.0565">1</text></g><!--link executePolicy to SuccessfulPolicyEvaluation--><g id="link_executePolicy_SuccessfulPolicyEvaluation"><path codeLine="160" d="M941.5,61.17 C941.5,86.41 941.5,118.93 941.5,147.92 " fill="none" id="executePolicy-to-SuccessfulPolicyEvaluation" style="stroke:#181818;stroke-width:1.0;stroke-dasharray:7.0,7.0;"/><polygon fill="#181818" points="941.5,153.92,945.5,144.92,941.5,148.92,937.5,144.92,941.5,153.92" style="stroke:#181818;stroke-width:1.0;"/><text fill="#000000" font-family="sans-serif" font-size="13" lengthAdjust="spacing" textLength="24" x="942.5" y="104.0669">200</text><text fill="#000000" font-family="sans-serif" font-size="13" lengthAdjust="spacing" textLength="8" x="932.8375" y="143.0463">1</text></g><!--link executePolicy to BadRequest--><g id="link_executePolicy_BadRequest"><path codeLine="162" d="M856.35,39.9 C658.65,52.09 181.51,86.59 131.5,138 C93.33,177.24 90.6221,241.1643 91.9021,274.8343 " fill="none" id="executePolicy-to-BadRequest" style="stroke:#181818;stroke-width:1.0;stroke-dasharray:7.0,7.0;"/><polygon fill="#181818" points="92.13,280.83,95.7852,271.6845,91.9401,275.8336,87.791,271.9885,92.13,280.83" style="stroke:#181818;stroke-width:1.0;"/><text fill="#000000" font-family="sans-serif" font-size="13" lengthAdjust="spacing" textLength="24" x="306.5" y="104.0669">400</text><text fill="#000000" font-family="sans-serif" font-size="13" lengthAdjust="spacing" textLength="8" x="82.6197" y="270.096">1</text></g><!--link executePolicy to ServerError.1--><g id="link_executePolicy_ServerError.1"><path codeLine="164" d="M856.45,41.01 C757.42,48.85 589.18,64.74 446.5,91 C363.91,106.2 338.17,99.57 263.5,138 C245.4,147.32 232.1994,158.2149 219.7794,170.3049 " fill="none" id="executePolicy-to-ServerError.1" style="stroke:#181818;stroke-width:1.0;stroke-dasharray:7.0,7.0;"/><polygon fill="#181818" points="215.48,174.49,224.7192,171.0785,219.0628,171.0024,219.139,165.346,215.48,174.49" style="stroke:#181818;stroke-width:1.0;"/><text fill="#000000" font-family="sans-serif" font-size="13" lengthAdjust="spacing" textLength="24" x="447.5" y="104.0669">500</text><text fill="#000000" font-family="sans-serif" font-size="13" lengthAdjust="spacing" textLength="8" x="211.5866" y="163.4563">1</text></g><!--SRC=[hLPBRzim3BxdLmW-5eZxtc4e0gn5qEEATi2EXIgpYL1PyYGvQvVblu-INLkARI5eTuaZylj8YYzxpGiWLrTtrAuN2yAuPW9cwqPu3wPIqi10SKSrBS62tjD0MTatWfgrAameUkOWK69UkAmSbp11ZI7RsJLbBokjQbdSAA5q5yZFDL0xsyqCM2BHbwaeWmTmPAiqaKh2RDOOoMu41scNMYkTW_ir6LecPEkzxWXJ6CTNOgpcSXN8qQgXgq2rwqngCBMm-OKpD9Jcfx6yqce3aae6JXEd9ufaGqNj_3qf9O3Am0IN64DTuZq-QA2F8Rxy1hJXIdQN9Dllkq3zL7DHF39LbjocCPPZlYmjAuJr_yUGQsKIjcGXmFJg-MAO_GVG67PJK9_Ge16Zn5_JuXv-rHXB2ZNiZrmeHYsc9SxLCnUZZQBLRnHpQM45Ecei4SZH8SYw91cyLe9okLz8vqag2mQVpvGB_wo5m4S1JtMKW9enR4xKtYd1sTlIrRqDUF-UOJzZu6mqjpse0CPTGppo8gvHxzq9cPsxObekv-yZzQ6sR4Qc7PScFRT_UFKDxrVPfSJHHFzZcLeXQZXwNx9HloKDiPNFcLia1mMTQh_H-J_B3hC3hy1g2qq9itx9uh_RvGzol3azBgYbnziAvRj4r_wlTNO-7dZGmDqo0MlVFbNoPaSUWc_RzdFUBiUzkMulgN3uOAVFSJ2oeonQw3tWr07-BhhUxJLdavhpISt5fEPoKlDbg1bxnntvUvpaBkBqaiDCaAmxnkQ2T8mvyTJsWCHeDZnnpxa79TPN67D_lKCPmLiEMU7wdumbVfTqiF0Y2DkRrGuMxXAV2ZUhASBOTlF4HZZlf2cdxVWr3fj34Xv-VhIaC4zJnEv5rHIvFIK8tQXwmlifGGW_Qpmd42He4syWRs5SDpIMv- -LJlIMjtXsSfBYXrtcyHTf_5x7USgbe_m3]--></g></svg>