<?xml version="1.0" encoding="us-ascii" standalone="no"?><svg xmlns="http://www.w3.org/2000/svg" xmlns:xlink="http://www.w3.org/1999/xlink" contentStyleType="text/css" height="335px" preserveAspectRatio="none" style="width:729px;height:335px;background:#FFFFFF;" version="1.1" viewBox="0 0 729 335" width="729px" zoomAndPan="magnify"><defs/><g><!--class plugins--><g id="elem_plugins"><rect codeLine="11" fill="#F1F1F1" height="64.5625" id="plugins" rx="2.5" ry="2.5" style="stroke:#181818;stroke-width:0.5;" width="117" x="7" y="138"/><text fill="#000000" font-family="sans-serif" font-size="12" font-style="italic" lengthAdjust="spacing" textLength="79" x="26" y="154.1387">&#171;Parameter&#187;</text><text fill="#000000" font-family="sans-serif" font-size="14" lengthAdjust="spacing" textLength="50" x="40.5" y="169.9639">plugins</text><line style="stroke:#181818;stroke-width:0.5;" x1="8" x2="123" y1="178.2656" y2="178.2656"/><text fill="#000000" font-family="sans-serif" font-size="14" lengthAdjust="spacing" textLength="105" x="13" y="195.2607">value : boolean</text></g><!--class UnhealthyServer--><g id="elem_UnhealthyServer"><rect codeLine="15" fill="#F1F1F1" height="56.2969" id="UnhealthyServer" rx="2.5" ry="2.5" style="stroke:#181818;stroke-width:0.5;" width="145" x="431" y="268.5"/><ellipse cx="446" cy="284.5" fill="#ADD1B2" rx="11" ry="11" style="stroke:#181818;stroke-width:1.0;"/><path d="M445.4688,291.4219 Q443.7188,291.4219 442.5781,290.6875 Q441.4531,289.9375 440.8906,288.5938 Q440.3438,287.2344 440.3438,285.4375 Q440.3438,283.4063 441,281.9531 Q441.6563,280.5 442.9375,279.7188 Q444.2188,278.9375 446.0938,278.9375 Q446.9844,278.9375 447.6563,279.125 Q448.3281,279.2969 449.0156,279.6406 L448.2031,281.6563 Q447.5781,281.3438 447.0313,281.2188 Q446.5,281.0938 446.0156,281.0938 Q444.8438,281.0938 444.1406,281.625 Q443.4375,282.1563 443.1406,283.1094 Q442.8438,284.0625 442.8438,285.3281 Q442.8438,287.3438 443.5625,288.3125 Q444.2813,289.2656 445.875,289.2656 Q446.4688,289.2656 447.0938,289.1094 Q447.7188,288.9531 448.5469,288.5781 L448.5469,290.7969 Q447.8125,291.1094 447.0156,291.2656 Q446.2344,291.4219 445.4688,291.4219 Z " fill="#000000"/><text fill="#000000" font-family="sans-serif" font-size="14" lengthAdjust="spacing" textLength="113" x="460" y="289.3467">UnhealthyServer</text><line style="stroke:#181818;stroke-width:0.5;" x1="432" x2="575" y1="300.5" y2="300.5"/><text fill="#000000" font-family="sans-serif" font-size="14" lengthAdjust="spacing" textLength="120" x="437" y="317.4951">code : string {O}</text></g><!--class exclude-plugin--><g id="elem_exclude-plugin"><rect codeLine="19" fill="#F1F1F1" height="40.2656" id="exclude-plugin" rx="2.5" ry="2.5" style="stroke:#181818;stroke-width:0.5;" width="107" x="159" y="150.5"/><text fill="#000000" font-family="sans-serif" font-size="12" font-style="italic" lengthAdjust="spacing" textLength="79" x="173" y="166.6387">&#171;Parameter&#187;</text><text fill="#000000" font-family="sans-serif" font-size="14" lengthAdjust="spacing" textLength="101" x="162" y="182.4639">exclude-plugin</text></g><!--class HealthyServer--><g id="elem_HealthyServer"><rect codeLine="22" fill="#F1F1F1" height="40.2656" id="HealthyServer" rx="2.5" ry="2.5" style="stroke:#181818;stroke-width:0.5;" width="101" x="301" y="150.5"/><text fill="#000000" font-family="sans-serif" font-size="12" font-style="italic" lengthAdjust="spacing" textLength="74" x="314.5" y="166.6387">&#171;Response&#187;</text><text fill="#000000" font-family="sans-serif" font-size="14" lengthAdjust="spacing" textLength="95" x="304" y="182.4639">HealthyServer</text></g><!--class health--><g id="elem_health"><rect codeLine="25" fill="#F5DEB3" height="54.2344" id="health" rx="2.5" ry="2.5" style="stroke:#181818;stroke-width:0.5;" width="114" x="294.5" y="7"/><ellipse cx="309.5" cy="34.1172" fill="#ADD1B2" rx="11" ry="11" style="stroke:#181818;stroke-width:1.0;"/><path d="M308.9688,41.0391 Q307.2188,41.0391 306.0781,40.3047 Q304.9531,39.5547 304.3906,38.2109 Q303.8438,36.8516 303.8438,35.0547 Q303.8438,33.0234 304.5,31.5703 Q305.1563,30.1172 306.4375,29.3359 Q307.7188,28.5547 309.5938,28.5547 Q310.4844,28.5547 311.1563,28.7422 Q311.8281,28.9141 312.5156,29.2578 L311.7031,31.2734 Q311.0781,30.9609 310.5313,30.8359 Q310,30.7109 309.5156,30.7109 Q308.3438,30.7109 307.6406,31.2422 Q306.9375,31.7734 306.6406,32.7266 Q306.3438,33.6797 306.3438,34.9453 Q306.3438,36.9609 307.0625,37.9297 Q307.7813,38.8828 309.375,38.8828 Q309.9688,38.8828 310.5938,38.7266 Q311.2188,38.5703 312.0469,38.1953 L312.0469,40.4141 Q311.3125,40.7266 310.5156,40.8828 Q309.7344,41.0391 308.9688,41.0391 Z " fill="#000000"/><text fill="#000000" font-family="sans-serif" font-size="12" font-style="italic" lengthAdjust="spacing" textLength="42" x="343.5" y="23.1387">&#171;Path&#187;</text><text fill="#000000" font-family="sans-serif" font-size="12" font-style="italic" lengthAdjust="spacing" textLength="86" x="321.5" y="37.1074">&#171;GET /health&#187;</text><text fill="#000000" font-family="sans-serif" font-size="14" lengthAdjust="spacing" textLength="43" x="343" y="52.9326">health</text></g><!--class UnhealthyServer.1--><g id="elem_UnhealthyServer.1"><rect codeLine="28" fill="#F1F1F1" height="40.2656" id="UnhealthyServer.1" rx="2.5" ry="2.5" style="stroke:#181818;stroke-width:0.5;" width="132" x="437.5" y="150.5"/><text fill="#000000" font-family="sans-serif" font-size="12" font-style="italic" lengthAdjust="spacing" textLength="74" x="466.5" y="166.6387">&#171;Response&#187;</text><text fill="#000000" font-family="sans-serif" font-size="14" lengthAdjust="spacing" textLength="126" x="440.5" y="182.4639">UnhealthyServer.1</text></g><!--class exclude-plugin.1--><g id="elem_exclude-plugin.1"><rect codeLine="31" fill="#F1F1F1" height="64.5625" id="exclude-plugin.1" rx="2.5" ry="2.5" style="stroke:#181818;stroke-width:0.5;" width="120" x="152.5" y="264"/><text fill="#000000" font-family="sans-serif" font-size="12" font-style="italic" lengthAdjust="spacing" textLength="79" x="173" y="280.1387">&#171;Parameter&#187;</text><text fill="#000000" font-family="sans-serif" font-size="14" lengthAdjust="spacing" textLength="114" x="155.5" y="295.9639">exclude-plugin.1</text><line style="stroke:#181818;stroke-width:0.5;" x1="153.5" x2="271.5" y1="304.2656" y2="304.2656"/><text fill="#000000" font-family="sans-serif" font-size="14" lengthAdjust="spacing" textLength="88" x="158.5" y="321.2607">value : string</text></g><!--class bundles--><g id="elem_bundles"><rect codeLine="35" fill="#F1F1F1" height="64.5625" id="bundles" rx="2.5" ry="2.5" style="stroke:#181818;stroke-width:0.5;" width="117" x="605" y="138"/><text fill="#000000" font-family="sans-serif" font-size="12" font-style="italic" lengthAdjust="spacing" textLength="79" x="624" y="154.1387">&#171;Parameter&#187;</text><text fill="#000000" font-family="sans-serif" font-size="14" lengthAdjust="spacing" textLength="56" x="635.5" y="169.9639">bundles</text><line style="stroke:#181818;stroke-width:0.5;" x1="606" x2="721" y1="178.2656" y2="178.2656"/><text fill="#000000" font-family="sans-serif" font-size="14" lengthAdjust="spacing" textLength="105" x="611" y="195.2607">value : boolean</text></g><!--link exclude-plugin to exclude-plugin.1--><g id="link_exclude-plugin_exclude-plugin.1"><path codeLine="39" d="M212.5,190.6 C212.5,210.03 212.5,234.49 212.5,257.59 " fill="none" id="exclude-plugin-to-exclude-plugin.1" style="stroke:#181818;stroke-width:1.0;"/><polygon fill="#181818" points="212.5,263.59,216.5,254.59,212.5,258.59,208.5,254.59,212.5,263.59" style="stroke:#181818;stroke-width:1.0;"/><text fill="#000000" font-family="sans-serif" font-size="13" lengthAdjust="spacing" textLength="7" x="204.8328" y="253.0081">*</text></g><!--link UnhealthyServer.1 to UnhealthyServer--><g id="link_UnhealthyServer.1_UnhealthyServer"><path codeLine="41" d="M503.5,190.6 C503.5,211.39 503.5,238.8 503.5,262.32 " fill="none" id="UnhealthyServer.1-to-UnhealthyServer" style="stroke:#181818;stroke-width:1.0;"/><polygon fill="#181818" points="503.5,268.32,507.5,259.32,503.5,263.32,499.5,259.32,503.5,268.32" style="stroke:#181818;stroke-width:1.0;"/><text fill="#000000" font-family="sans-serif" font-size="13" lengthAdjust="spacing" textLength="8" x="494.625" y="257.564">1</text></g><!--link health to bundles--><g id="link_health_bundles"><path codeLine="43" d="M408.73,59.67 C464.4,83.67 543.0902,117.5947 599.2702,141.8147 " fill="none" id="health-to-bundles" style="stroke:#181818;stroke-width:1.0;"/><polygon fill="#181818" points="604.78,144.19,598.0989,136.9538,600.1885,142.2105,594.9318,144.3002,604.78,144.19" style="stroke:#181818;stroke-width:1.0;"/><text fill="#000000" font-family="sans-serif" font-size="13" lengthAdjust="spacing" textLength="50" x="517.5" y="104.0669">bundles</text><text fill="#000000" font-family="sans-serif" font-size="13" lengthAdjust="spacing" textLength="8" x="589.136" y="137.1711">1</text></g><!--link health to plugins--><g id="link_health_plugins"><path codeLine="45" d="M294.43,49.72 C260.94,59.38 218.31,73.46 182.5,91 C155.92,104.02 133.1993,118.7643 111.4893,134.3943 " fill="none" id="health-to-plugins" style="stroke:#181818;stroke-width:1.0;"/><polygon fill="#181818" points="106.62,137.9,116.2611,135.8877,110.6778,134.9786,111.5869,129.3953,106.62,137.9" style="stroke:#181818;stroke-width:1.0;"/><text fill="#000000" font-family="sans-serif" font-size="13" lengthAdjust="spacing" textLength="45" x="183.5" y="104.0669">plugins</text><text fill="#000000" font-family="sans-serif" font-size="13" lengthAdjust="spacing" textLength="8" x="106.276" y="126.7551">1</text></g><!--link health to exclude-plugin--><g id="link_health_exclude-plugin"><path codeLine="47" d="M294.43,58.25 C278.44,66.78 262.02,77.68 249.5,91 C233.5,108.01 225.1496,127.489 219.5996,144.719 " fill="none" id="health-to-exclude-plugin" style="stroke:#181818;stroke-width:1.0;"/><polygon fill="#181818" points="217.76,150.43,224.3267,143.0898,219.293,145.6708,216.712,140.6371,217.76,150.43" style="stroke:#181818;stroke-width:1.0;"/><text fill="#000000" font-family="sans-serif" font-size="13" lengthAdjust="spacing" textLength="92" x="250.5" y="104.0669">exclude-plugin</text><text fill="#000000" font-family="sans-serif" font-size="13" lengthAdjust="spacing" textLength="8" x="210.1301" y="139.3787">1</text></g><!--link health to HealthyServer--><g id="link_health_HealthyServer"><path codeLine="49" d="M351.5,61.25 C351.5,87.4 351.5,120.91 351.5,144.27 " fill="none" id="health-to-HealthyServer" style="stroke:#181818;stroke-width:1.0;stroke-dasharray:7.0,7.0;"/><polygon fill="#181818" points="351.5,150.27,355.5,141.27,351.5,145.27,347.5,141.27,351.5,150.27" style="stroke:#181818;stroke-width:1.0;"/><text fill="#000000" font-family="sans-serif" font-size="13" lengthAdjust="spacing" textLength="24" x="352.5" y="104.0669">200</text><text fill="#000000" font-family="sans-serif" font-size="13" lengthAdjust="spacing" textLength="8" x="342.375" y="139.5192">1</text></g><!--link health to UnhealthyServer.1--><g id="link_health_UnhealthyServer.1"><path codeLine="51" d="M381.17,61.25 C410.72,87.4 450.8765,122.934 477.2765,146.294 " fill="none" id="health-to-UnhealthyServer.1" style="stroke:#181818;stroke-width:1.0;stroke-dasharray:7.0,7.0;"/><polygon fill="#181818" points="481.77,150.27,477.6805,141.3103,478.0255,146.9566,472.3791,147.3016,481.77,150.27" style="stroke:#181818;stroke-width:1.0;"/><text fill="#000000" font-family="sans-serif" font-size="13" lengthAdjust="spacing" textLength="24" x="433.5" y="104.0669">500</text><text fill="#000000" font-family="sans-serif" font-size="13" lengthAdjust="spacing" textLength="8" x="466.5334" y="139.5192">1</text></g><!--SRC=[bPB1JiCm38RlVGghHwIEWSG5JJs04DoO68XpbdfDjIofadHYclRkk0thsZG2SQZQsDzl_x4hgW9XiLWo9_8SU6Mun4Juu1lQMYkBayII6RP3XoR8uAvs1w2Cq8KTXZOLIehORQNgLWjSCclXc3mmlYsDRbJngAKslP5FWSmbfyIY0qMzRCquhh0LEsr0QOL9uekajMpAIjaqC4RLwUawds3FP8Dm3skj9J95bS_g3qMjf1E75PezcdGauxfeLTQPIfLmV3qDXFZ5PLDWvjj7kb_Gbt67qMH7eBUINXP2NyzFxt3j4o4UU9_T_5PxxDUpVyxBttnGPKshalZlOK-cbMKvf5Tfn1R1aNjrFBqd-oByFBMUwKsIYSifHlR_JaUUJp4ol40d2883tMpsemjstybkv_Ce6xbtnz-r_3S0]--></g></svg>